<?xml version="1.0" encoding="UTF-8"?>
<svg version="1.1" viewBox="0 0 2048 216" width="1280" height="1280" xmlns="http://www.w3.org/2000/svg">
<path transform="translate(7,47)" d="m0 0h37l2 5 16 67 6 28v2h2l1-8 15-55 11-38 1-1h35l3 7 22 78 4 17h2l1-10 15-64 6-26 1-2h36l-2 10-20 73-16 57-1 3h-41l-6-18-16-56-6-23-4 13-10 37-13 44-2 3h-39l-4-10-20-72-16-57z" fill="#010101"/>
<path transform="translate(1164,47)" d="m0 0h38l2 5 16 67 6 28v2h2l1-8 15-55 11-38 1-1h35l3 7 22 78 4 17h2l1-10 21-90 1-2h36l-2 10-25 91-12 42h-41l-6-18-16-56-6-23-4 13-10 37-13 44-2 3h-39l-4-10-20-72-16-57z" fill="#010101"/>
<path transform="translate(290,43)" d="m0 0h16l15 2 14 5 11 8 7 9 5 12 1 6v75h14v30h-28l-8-3-7-6-7-14-3 8-9 10-6 4-13 4h-24l-12-4-8-6-7-8-4-9-2-11 1-14 4-11 7-9 10-7 14-5 12-2h37l-1-17-4-9-8-5-5-1h-14l-10 4-9 7-3 5-4-1-13-12-8-7 6-8 8-8 12-7 15-4zm3 86-10 3-6 5-2 4v14l4 7 8 4h15l11-4 6-7 1-3v-23z" fill="#010101"/>
<path transform="translate(1862,43)" d="m0 0h14l17 3 14 7 10 8 8 11 6 13 3 12 1 7v24l-92 1 1 12 4 9 6 7 9 4 5 1h13l13-4 12-9 4-4h2l8 10 10 12-1 4-10 9-15 8-14 4-5 1h-29l-12-3-12-6-10-8-8-10-7-14-4-15-1-8v-22l4-20 8-16 6-8 8-8 12-7 14-4zm3 29-9 3-7 6-5 9-2 11v4h53v-9l-3-10-5-8-8-5-5-1z" fill="#020202"/>
<path transform="translate(692,43)" d="m0 0h14l16 3 16 8 10 9 7 9 6 12 4 16 1 7v22l-3 17-5 13-7 12-9 9-11 7-14 5-5 1h-27l-14-4-11-6-10-9-6-7-7-14-4-15-1-7v-25l3-16 5-13 7-11 11-11 12-7 14-4zm3 31-10 3-7 6-4 8-2 13v33l3 12 6 8 9 5h17l10-5 6-9 2-6v-47l-4-10-5-6-8-4-5-1z" fill="#010102"/>
<path transform="translate(1721,43)" d="m0 0h12l13 3 10 6 8 9 5 11 3 12 1 11v95h-39l-1-91-2-12-4-6-5-4-4-1h-12l-10 4-5 4-3 6-1 8-1 92h-39v-142l1-1h38l1 22 7-12 9-8 8-4z" fill="#000001"/>
<path transform="translate(1559,43)" d="m0 0h12l13 3 10 6 8 9 5 11 3 12 1 10v96h-39l-1-91-2-12-4-6-5-4-4-1h-12l-10 4-5 4-3 6-1 7-1 93h-39v-142l1-1h38l1 22 7-12 9-8 8-4z"/>
<path transform="translate(869,43)" d="m0 0h12l13 3 10 6 8 9 5 11 3 12 1 11v95h-39l-1-91-2-12-4-6-5-4-4-1h-12l-10 4-5 4-3 6-1 9-1 91h-38l-1-1v-141l1-1h38l1 22 7-12 9-8 8-4z" fill="#000001"/>
<path transform="translate(545,43)" d="m0 0h15l19 3 12 5 10 7 8 7-2 4-17 17-2 3-4-2-8-6-8-4-7-2h-16l-8 4-2 4v8l4 6 10 3 26 4 15 5 9 6 7 7 5 10 2 16-3 14-6 11-7 7-10 6-12 5-10 2h-29l-15-4-14-7-11-9-4-4 1-4 21-21 7 6 10 7 10 4 4 1h16l10-4 3-6v-7l-3-5-7-3-32-5-14-5-10-7-6-7-4-9-2-10v-9l3-12 4-8 9-10 10-6 11-4z" fill="#010101"/>
<path transform="translate(946,47)" d="m0 0h45l17 28 10 17 3-4 17-29 7-12h42l-7 11-29 44-10 15 1 4 14 22 9 13 22 33v1h-44l-6-9-17-29-5-8-2-1-2 5-16 28-9 14h-40l2-5 42-64 2-4-29-44-17-25z" fill="#1060FE"/>
<path transform="translate(411,8)" d="m0 0h35v39h28v30h-28v83h26v30h-33l-12-3-9-6-6-8-4-10-1-6v-80h-20v-30l18-2 3-1 2-7z"/>
<path transform="translate(1964,47)" d="m0 0h38l1 29 5-12 9-10 8-5 6-2h17v36l-20 1-14 3-7 5-3 7-1 10-1 81h-38z"/>
<path transform="translate(1408,47)" d="m0 0h38v143h-39v-142z"/>
<path transform="translate(1405)" d="m0 0h44v18l-4 6-6 4-8 2h-9l-10-3-6-7-2-6v-12z" fill="#010101"/>
</svg>
