<?xml version="1.0" encoding="UTF-8"?>
<!DOCTYPE svg PUBLIC "-//W3C//DTD SVG 1.1//EN" "http://www.w3.org/Graphics/SVG/1.1/DTD/svg11.dtd">
<svg xmlns="http://www.w3.org/2000/svg" version="1.1" width="1024px" height="108px" style="shape-rendering:geometricPrecision; text-rendering:geometricPrecision; image-rendering:optimizeQuality; fill-rule:evenodd; clip-rule:evenodd" xmlns:xlink="http://www.w3.org/1999/xlink">
<g><path style="opacity:0.937" fill="#000000" d="M 749.5,1.5 C 756.5,1.5 763.5,1.5 770.5,1.5C 770.5,35.5 770.5,69.5 770.5,103.5C 763.5,103.5 756.5,103.5 749.5,103.5C 749.664,100.813 749.497,98.146 749,95.5C 742.758,104.363 734.258,107.529 723.5,105C 712.598,102.43 706.098,95.5962 704,84.5C 701.527,70.9897 702.194,57.6563 706,44.5C 714.829,30.2629 726.996,26.4296 742.5,33C 745.04,35.2047 747.207,37.7047 749,40.5C 749.5,27.5043 749.667,14.5043 749.5,1.5 Z M 732.5,46.5 C 739.656,45.1664 745.156,47.4997 749,53.5C 749.667,63.1667 749.667,72.8333 749,82.5C 743.703,89.1156 737.203,90.6156 729.5,87C 726.894,85.0616 725.061,82.5616 724,79.5C 723.333,71.8333 723.333,64.1667 724,56.5C 725.261,51.7452 728.095,48.4118 732.5,46.5 Z"/></g>
<g><path style="opacity:0.938" fill="#000000" d="M 322.5,12.5 C 328.833,12.5 335.167,12.5 341.5,12.5C 341.5,18.8333 341.5,25.1667 341.5,31.5C 346.167,31.5 350.833,31.5 355.5,31.5C 355.5,36.8333 355.5,42.1667 355.5,47.5C 350.833,47.5 346.167,47.5 341.5,47.5C 341.5,61.1667 341.5,74.8333 341.5,88.5C 345.833,88.5 350.167,88.5 354.5,88.5C 354.5,93.5 354.5,98.5 354.5,103.5C 347.492,103.666 340.492,103.5 333.5,103C 326.025,100.522 321.858,95.3558 321,87.5C 320.5,74.1708 320.333,60.8375 320.5,47.5C 317.167,47.5 313.833,47.5 310.5,47.5C 310.5,42.1667 310.5,36.8333 310.5,31.5C 313.518,31.6646 316.518,31.498 319.5,31C 320.333,30.1667 321.167,29.3333 322,28.5C 322.499,23.1771 322.666,17.8437 322.5,12.5 Z"/></g>
<g><path style="opacity:0.947" fill="#000000" d="M 261.5,29.5 C 273.605,28.1475 284.105,31.4808 293,39.5C 294.893,42.618 296.226,45.9513 297,49.5C 297.5,62.4957 297.667,75.4957 297.5,88.5C 299.833,88.5 302.167,88.5 304.5,88.5C 304.5,93.5 304.5,98.5 304.5,103.5C 298.824,103.666 293.157,103.499 287.5,103C 283.585,100.754 280.752,97.5878 279,93.5C 276.341,99.4918 271.841,103.325 265.5,105C 240.9,107.913 231.4,97.4125 237,73.5C 241.923,66.4507 248.756,62.6173 257.5,62C 264.158,61.5004 270.825,61.3337 277.5,61.5C 278.155,48.3329 272.155,43.4996 259.5,47C 255.742,48.9229 252.409,51.4229 249.5,54.5C 245.313,51.2357 241.313,47.7357 237.5,44C 243.254,35.2961 251.254,30.4628 261.5,29.5 Z M 262.5,73.5 C 267.5,73.5 272.5,73.5 277.5,73.5C 279.063,88.1035 272.73,93.6035 258.5,90C 253.494,82.7856 254.827,77.2856 262.5,73.5 Z"/></g>
<g><path style="opacity:0.942" fill="#000000" d="M 388.5,29.5 C 399.382,28.7386 409.382,31.2386 418.5,37C 420.019,38.3513 421.352,39.8513 422.5,41.5C 418.849,45.6516 415.016,49.6516 411,53.5C 403.927,46.3547 395.761,44.5214 386.5,48C 383.803,51.2709 384.136,54.2709 387.5,57C 394.125,58.5181 400.791,59.8514 407.5,61C 423.687,66.8829 428.187,77.7162 421,93.5C 415.998,99.8278 409.498,103.661 401.5,105C 385.88,108.155 372.88,103.822 362.5,92C 366.378,87.7856 370.545,83.9522 375,80.5C 377.449,81.9443 379.615,83.7776 381.5,86C 387.114,89.2086 393.114,90.2086 399.5,89C 405.201,86.1685 405.867,82.5018 401.5,78C 394.496,76.7488 387.496,75.4154 380.5,74C 368.262,69.3649 363.428,60.5316 366,47.5C 369.799,36.8674 377.299,30.8674 388.5,29.5 Z"/></g>
<g><path style="opacity:0.948" fill="#000000" d="M 462.5,29.5 C 482.951,28.4775 495.451,37.8108 500,57.5C 503.49,74.0625 499.323,88.2292 487.5,100C 473.821,107.332 460.154,107.332 446.5,100C 439.89,94.2832 435.723,87.1165 434,78.5C 433.333,71.1667 433.333,63.8333 434,56.5C 437.257,40.7389 446.757,31.7389 462.5,29.5 Z M 461.5,46.5 C 469.701,44.3996 475.534,47.0663 479,54.5C 479.92,64.2417 479.587,73.9084 478,83.5C 473.339,89.4073 467.505,90.9073 460.5,88C 457.865,86.0395 456.031,83.5395 455,80.5C 454.333,71.8333 454.333,63.1667 455,54.5C 456.305,51.0386 458.471,48.372 461.5,46.5 Z"/></g>
<g><path style="opacity:0.944" fill="#000000" d="M 551.5,29.5 C 567.594,28.7587 576.427,36.4253 578,52.5C 578.5,69.4967 578.667,86.4967 578.5,103.5C 571.833,103.5 565.167,103.5 558.5,103.5C 558.91,86.4577 558.41,69.4577 557,52.5C 552.401,45.9377 546.568,44.7711 539.5,49C 538.333,50.1667 537.167,51.3333 536,52.5C 535.5,69.4967 535.333,86.4967 535.5,103.5C 528.5,103.5 521.5,103.5 514.5,103.5C 514.5,79.5 514.5,55.5 514.5,31.5C 521.5,31.5 528.5,31.5 535.5,31.5C 535.335,34.5184 535.502,37.5184 536,40.5C 539.449,34.21 544.615,30.5433 551.5,29.5 Z"/></g>
<g><path style="opacity:0.947" fill="#000000" d="M 863.5,29.5 C 875.605,28.1475 886.105,31.4808 895,39.5C 896.893,42.618 898.226,45.9513 899,49.5C 899.5,62.4957 899.667,75.4957 899.5,88.5C 901.833,88.5 904.167,88.5 906.5,88.5C 906.5,93.5 906.5,98.5 906.5,103.5C 900.824,103.666 895.157,103.499 889.5,103C 885.585,100.754 882.752,97.5878 881,93.5C 878.341,99.4918 873.841,103.325 867.5,105C 842.9,107.913 833.4,97.4125 839,73.5C 843.923,66.4507 850.756,62.6173 859.5,62C 866.158,61.5004 872.825,61.3337 879.5,61.5C 880.155,48.3329 874.155,43.4996 861.5,47C 857.742,48.9229 854.409,51.4229 851.5,54.5C 847.313,51.2357 843.313,47.7357 839.5,44C 845.254,35.2961 853.254,30.4628 863.5,29.5 Z M 864.5,73.5 C 869.5,73.5 874.5,73.5 879.5,73.5C 881.063,88.1035 874.73,93.6035 860.5,90C 855.494,82.7856 856.827,77.2856 864.5,73.5 Z"/></g>
<g><path style="opacity:0.947" fill="#000000" d="M 120.5,31.5 C 127.167,31.5 133.833,31.5 140.5,31.5C 144.171,48.52 148.005,65.52 152,82.5C 156.611,65.5039 161.111,48.5039 165.5,31.5C 171.868,31.1703 178.202,31.5037 184.5,32.5C 189.49,48.7934 194.323,65.1268 199,81.5C 202.837,64.8193 206.67,48.1526 210.5,31.5C 216.833,31.5 223.167,31.5 229.5,31.5C 223.164,55.5061 216.831,79.5061 210.5,103.5C 203.137,103.831 195.803,103.497 188.5,102.5C 183.691,87.2631 179.191,71.9298 175,56.5C 170.603,71.8575 166.103,87.1909 161.5,102.5C 154.524,103.664 147.524,103.831 140.5,103C 133.446,79.2868 126.78,55.4535 120.5,31.5 Z"/></g>
<g><path style="opacity:0.94" fill="#0f61fe" d="M 590.5,31.5 C 598.196,31.1692 605.862,31.5025 613.5,32.5C 617.583,39.6676 621.916,46.6676 626.5,53.5C 631.084,46.6676 635.417,39.6676 639.5,32.5C 646.811,31.3354 654.144,31.1687 661.5,32C 653.578,43.8471 645.911,55.8471 638.5,68C 646.151,79.6563 653.818,91.323 661.5,103C 653.833,103.667 646.167,103.667 638.5,103C 633.996,95.6757 629.33,88.509 624.5,81.5C 619.79,88.4174 615.456,95.584 611.5,103C 604.167,103.667 596.833,103.667 589.5,103C 597.748,91.172 605.748,79.172 613.5,67C 605.19,55.5357 597.523,43.7024 590.5,31.5 Z"/></g>
<g><path style="opacity:0.955" fill="#000000" d="M 789.5,31.5 C 796.167,31.5 802.833,31.5 809.5,31.5C 809.334,35.5138 809.501,39.5138 810,43.5C 814.04,34.2234 821.206,30.2234 831.5,31.5C 831.5,37.8333 831.5,44.1667 831.5,50.5C 826.087,50.2288 820.754,50.7288 815.5,52C 813,53.1667 811.167,55 810,57.5C 809.5,72.8297 809.333,88.163 809.5,103.5C 802.833,103.5 796.167,103.5 789.5,103.5C 789.5,79.5 789.5,55.5 789.5,31.5 Z"/></g>
<g><path style="opacity:0.947" fill="#000000" d="M 912.5,31.5 C 919.167,31.5 925.833,31.5 932.5,31.5C 936.171,48.52 940.005,65.52 944,82.5C 948.611,65.5039 953.111,48.5039 957.5,31.5C 963.868,31.1703 970.202,31.5037 976.5,32.5C 981.49,48.7934 986.323,65.1268 991,81.5C 994.837,64.8193 998.67,48.1526 1002.5,31.5C 1008.83,31.5 1015.17,31.5 1021.5,31.5C 1015.16,55.5061 1008.83,79.5061 1002.5,103.5C 995.137,103.831 987.803,103.497 980.5,102.5C 975.691,87.2631 971.191,71.9298 967,56.5C 962.603,71.8575 958.103,87.1909 953.5,102.5C 946.524,103.664 939.524,103.831 932.5,103C 925.446,79.2868 918.78,55.4535 912.5,31.5 Z"/></g>
</svg>
