<?xml version="1.0" encoding="UTF-8"?>
<!DOCTYPE svg PUBLIC "-//W3C//DTD SVG 1.1//EN" "http://www.w3.org/Graphics/SVG/1.1/DTD/svg11.dtd">
<svg xmlns="http://www.w3.org/2000/svg" version="1.1" width="1024px" height="108px" style="shape-rendering:geometricPrecision; text-rendering:geometricPrecision; image-rendering:optimizeQuality; fill-rule:evenodd; clip-rule:evenodd" xmlns:xlink="http://www.w3.org/1999/xlink">
<g><path style="opacity:0.931" fill="#000000" d="M 709.5,0.5 C 721.254,0.967908 725.42,6.96791 722,18.5C 720.773,20.7261 718.939,22.2261 716.5,23C 701.361,25.229 696.194,19.0623 701,4.5C 703.564,2.37571 706.397,1.04238 709.5,0.5 Z"/></g>
<g><path style="opacity:0.938" fill="#000000" d="M 202.5,12.5 C 208.833,12.5 215.167,12.5 221.5,12.5C 221.5,18.8333 221.5,25.1667 221.5,31.5C 226.167,31.5 230.833,31.5 235.5,31.5C 235.5,36.8333 235.5,42.1667 235.5,47.5C 230.833,47.5 226.167,47.5 221.5,47.5C 221.5,61.1667 221.5,74.8333 221.5,88.5C 225.833,88.5 230.167,88.5 234.5,88.5C 234.5,93.5 234.5,98.5 234.5,103.5C 227.492,103.666 220.492,103.5 213.5,103C 206.025,100.522 201.858,95.3558 201,87.5C 200.5,74.1708 200.333,60.8375 200.5,47.5C 197.167,47.5 193.833,47.5 190.5,47.5C 190.5,42.1667 190.5,36.8333 190.5,31.5C 193.518,31.6646 196.518,31.498 199.5,31C 200.333,30.1667 201.167,29.3333 202,28.5C 202.499,23.1771 202.666,17.8437 202.5,12.5 Z"/></g>
<g><path style="opacity:0.947" fill="#000000" d="M 141.5,29.5 C 153.605,28.1475 164.105,31.4808 173,39.5C 174.893,42.618 176.226,45.9513 177,49.5C 177.5,62.4957 177.667,75.4957 177.5,88.5C 179.833,88.5 182.167,88.5 184.5,88.5C 184.5,93.5 184.5,98.5 184.5,103.5C 178.824,103.666 173.157,103.499 167.5,103C 163.585,100.754 160.752,97.5878 159,93.5C 156.341,99.4918 151.841,103.325 145.5,105C 120.9,107.913 111.4,97.4125 117,73.5C 121.923,66.4507 128.756,62.6173 137.5,62C 144.158,61.5004 150.825,61.3337 157.5,61.5C 158.155,48.3329 152.155,43.4996 139.5,47C 135.742,48.9229 132.409,51.4229 129.5,54.5C 125.313,51.2357 121.313,47.7357 117.5,44C 123.254,35.2961 131.254,30.4628 141.5,29.5 Z M 142.5,73.5 C 147.5,73.5 152.5,73.5 157.5,73.5C 159.063,88.1035 152.73,93.6035 138.5,90C 133.494,82.7856 134.827,77.2856 142.5,73.5 Z"/></g>
<g><path style="opacity:0.942" fill="#000000" d="M 268.5,29.5 C 279.382,28.7386 289.382,31.2386 298.5,37C 300.019,38.3513 301.352,39.8513 302.5,41.5C 298.849,45.6516 295.016,49.6516 291,53.5C 283.927,46.3547 275.761,44.5214 266.5,48C 263.803,51.2709 264.136,54.2709 267.5,57C 274.125,58.5181 280.791,59.8514 287.5,61C 303.687,66.8829 308.187,77.7162 301,93.5C 295.998,99.8278 289.498,103.661 281.5,105C 265.88,108.155 252.88,103.822 242.5,92C 246.378,87.7856 250.545,83.9522 255,80.5C 257.449,81.9443 259.615,83.7776 261.5,86C 267.114,89.2086 273.114,90.2086 279.5,89C 285.201,86.1685 285.867,82.5018 281.5,78C 274.496,76.7488 267.496,75.4154 260.5,74C 248.262,69.3649 243.428,60.5316 246,47.5C 249.799,36.8674 257.299,30.8674 268.5,29.5 Z"/></g>
<g><path style="opacity:0.948" fill="#000000" d="M 342.5,29.5 C 362.951,28.4775 375.451,37.8108 380,57.5C 383.49,74.0625 379.323,88.2292 367.5,100C 353.821,107.332 340.154,107.332 326.5,100C 319.89,94.2832 315.723,87.1165 314,78.5C 313.333,71.1667 313.333,63.8333 314,56.5C 317.257,40.7389 326.757,31.7389 342.5,29.5 Z M 341.5,46.5 C 349.701,44.3996 355.534,47.0663 359,54.5C 359.92,64.2417 359.587,73.9084 358,83.5C 353.339,89.4073 347.505,90.9073 340.5,88C 337.865,86.0395 336.031,83.5395 335,80.5C 334.333,71.8333 334.333,63.1667 335,54.5C 336.305,51.0386 338.471,48.372 341.5,46.5 Z"/></g>
<g><path style="opacity:0.944" fill="#000000" d="M 431.5,29.5 C 447.594,28.7587 456.427,36.4253 458,52.5C 458.5,69.4967 458.667,86.4967 458.5,103.5C 451.833,103.5 445.167,103.5 438.5,103.5C 438.91,86.4577 438.41,69.4577 437,52.5C 432.401,45.9377 426.568,44.7711 419.5,49C 418.333,50.1667 417.167,51.3333 416,52.5C 415.5,69.4967 415.333,86.4967 415.5,103.5C 408.5,103.5 401.5,103.5 394.5,103.5C 394.5,79.5 394.5,55.5 394.5,31.5C 401.5,31.5 408.5,31.5 415.5,31.5C 415.335,34.5184 415.502,37.5184 416,40.5C 419.449,34.21 424.615,30.5433 431.5,29.5 Z"/></g>
<g><path style="opacity:0.944" fill="#000000" d="M 776.5,29.5 C 792.594,28.7587 801.427,36.4253 803,52.5C 803.5,69.4967 803.667,86.4967 803.5,103.5C 796.833,103.5 790.167,103.5 783.5,103.5C 783.91,86.4577 783.41,69.4577 782,52.5C 777.401,45.9377 771.568,44.7711 764.5,49C 763.333,50.1667 762.167,51.3333 761,52.5C 760.5,69.4967 760.333,86.4967 760.5,103.5C 753.5,103.5 746.5,103.5 739.5,103.5C 739.5,79.5 739.5,55.5 739.5,31.5C 746.5,31.5 753.5,31.5 760.5,31.5C 760.335,34.5184 760.502,37.5184 761,40.5C 764.449,34.21 769.615,30.5433 776.5,29.5 Z"/></g>
<g><path style="opacity:0.944" fill="#000000" d="M 857.5,29.5 C 873.594,28.7587 882.427,36.4253 884,52.5C 884.5,69.4967 884.667,86.4967 884.5,103.5C 877.833,103.5 871.167,103.5 864.5,103.5C 864.91,86.4577 864.41,69.4577 863,52.5C 858.401,45.9377 852.568,44.7711 845.5,49C 844.333,50.1667 843.167,51.3333 842,52.5C 841.5,69.4967 841.333,86.4967 841.5,103.5C 834.5,103.5 827.5,103.5 820.5,103.5C 820.5,79.5 820.5,55.5 820.5,31.5C 827.5,31.5 834.5,31.5 841.5,31.5C 841.335,34.5184 841.502,37.5184 842,40.5C 845.449,34.21 850.615,30.5433 857.5,29.5 Z"/></g>
<g><path style="opacity:0.936" fill="#000000" d="M 927.5,29.5 C 946.011,28.155 958.178,36.155 964,53.5C 965.274,60.1028 965.774,66.7695 965.5,73.5C 950.167,73.5 934.833,73.5 919.5,73.5C 920.221,86.0509 926.887,91.2175 939.5,89C 944.758,87.5739 949.092,84.7406 952.5,80.5C 956.324,84.4929 959.991,88.6596 963.5,93C 950.293,105.51 934.96,108.843 917.5,103C 903.735,95.3107 897.401,83.4773 898.5,67.5C 897.812,46.5618 907.478,33.8951 927.5,29.5 Z M 927.5,45.5 C 939.109,43.7765 944.776,48.7765 944.5,60.5C 936.167,60.5 927.833,60.5 919.5,60.5C 919.351,57.3926 919.851,54.3926 921,51.5C 923.063,49.2659 925.229,47.2659 927.5,45.5 Z"/></g>
<g><path style="opacity:0.947" fill="#000000" d="M 0.5,31.5 C 7.16667,31.5 13.8333,31.5 20.5,31.5C 24.1713,48.52 28.0046,65.52 32,82.5C 36.6115,65.5039 41.1115,48.5039 45.5,31.5C 51.8682,31.1703 58.2015,31.5037 64.5,32.5C 69.4898,48.7934 74.3231,65.1268 79,81.5C 82.8371,64.8193 86.6705,48.1526 90.5,31.5C 96.8333,31.5 103.167,31.5 109.5,31.5C 103.164,55.5061 96.8309,79.5061 90.5,103.5C 83.1365,103.831 75.8032,103.497 68.5,102.5C 63.6906,87.2631 59.1906,71.9298 55,56.5C 50.6033,71.8575 46.1033,87.1909 41.5,102.5C 34.5237,103.664 27.5237,103.831 20.5,103C 13.4464,79.2868 6.77971,55.4535 0.5,31.5 Z"/></g>
<g><path style="opacity:0.94" fill="#0f61fe" d="M 470.5,31.5 C 478.196,31.1692 485.862,31.5025 493.5,32.5C 497.583,39.6676 501.916,46.6676 506.5,53.5C 511.084,46.6676 515.417,39.6676 519.5,32.5C 526.811,31.3354 534.144,31.1687 541.5,32C 533.578,43.8471 525.911,55.8471 518.5,68C 526.151,79.6563 533.818,91.323 541.5,103C 533.833,103.667 526.167,103.667 518.5,103C 513.996,95.6757 509.33,88.509 504.5,81.5C 499.79,88.4174 495.456,95.584 491.5,103C 484.167,103.667 476.833,103.667 469.5,103C 477.748,91.172 485.748,79.172 493.5,67C 485.19,55.5357 477.523,43.7024 470.5,31.5 Z"/></g>
<g><path style="opacity:0.947" fill="#000000" d="M 579.5,31.5 C 586.167,31.5 592.833,31.5 599.5,31.5C 603.171,48.52 607.005,65.52 611,82.5C 615.611,65.5039 620.111,48.5039 624.5,31.5C 630.868,31.1703 637.202,31.5037 643.5,32.5C 648.49,48.7934 653.323,65.1268 658,81.5C 661.837,64.8193 665.67,48.1526 669.5,31.5C 675.833,31.5 682.167,31.5 688.5,31.5C 682.164,55.5061 675.831,79.5061 669.5,103.5C 662.137,103.831 654.803,103.497 647.5,102.5C 642.691,87.2631 638.191,71.9298 634,56.5C 629.603,71.8575 625.103,87.1909 620.5,102.5C 613.524,103.664 606.524,103.831 599.5,103C 592.446,79.2868 585.78,55.4535 579.5,31.5 Z"/></g>
<g><path style="opacity:0.922" fill="#000000" d="M 700.5,31.5 C 707.5,31.5 714.5,31.5 721.5,31.5C 721.5,55.5 721.5,79.5 721.5,103.5C 714.5,103.5 707.5,103.5 700.5,103.5C 700.5,79.5 700.5,55.5 700.5,31.5 Z"/></g>
<g><path style="opacity:0.955" fill="#000000" d="M 979.5,31.5 C 986.167,31.5 992.833,31.5 999.5,31.5C 999.334,35.5138 999.501,39.5138 1000,43.5C 1004.04,34.2234 1011.21,30.2234 1021.5,31.5C 1021.5,37.8333 1021.5,44.1667 1021.5,50.5C 1016.09,50.2288 1010.75,50.7288 1005.5,52C 1003,53.1667 1001.17,55 1000,57.5C 999.5,72.8297 999.333,88.163 999.5,103.5C 992.833,103.5 986.167,103.5 979.5,103.5C 979.5,79.5 979.5,55.5 979.5,31.5 Z"/></g>
</svg>
